<svg xmlns="http://www.w3.org/2000/svg" viewBox="0 0 200 200">
  <!-- Soft green background -->
  <rect width="200" height="200" fill="#e6f7ec" />

  <!-- Original Nuxt logo with scaling and padding -->
  <g transform="translate(25,25) scale(0.75)">
    <path d="M108.8 126.6c-1.1 1.9-3 3-5.2 3H7.4c-2.2 0-4.1-1.1-5.2-3s-1.1-4.1 0-6l50.2-87c1.1-1.9 3-3 5.2-3s4.1 1.1 5.2 3l50.2 87c1.1 1.9 1.1 4.1 0 6z" fill="#00C58E"/>
    <path d="M197.8 126.6c-1.1 1.9-3 3-5.2 3h-89.9c-2.2 0-4.1-1.1-5.2-3s-1.1-4.1 0-6l44.9-77.9c1.1-1.9 3-3 5.2-3s4.1 1.1 5.2 3l44.9 77.9c1.1 1.9 1.1 4.1 0 6z" fill="#108775"/>
    <path d="M152.9 126.6c-1.1 1.9-3 3-5.2 3h-45c-2.2 0-4.1-1.1-5.2-3s-1.1-4.1 0-6l22.5-39c1.1-1.9 3-3 5.2-3s4.1 1.1 5.2 3l22.5 39c1.1 1.9 1.1 4.1 0 6z" fill="#2F495E"/>
  </g>
</svg>